<svg height="512pt" viewBox="0 -68 512.00003 512" width="512pt" xmlns="http://www.w3.org/2000/svg"><path d="m42.667969 8.535156h426.664062c18.851563 0 34.132813 15.28125 34.132813 34.132813v290.132812c0 18.851563-15.28125 34.132813-34.132813 34.132813h-426.664062c-18.851563 0-34.132813-15.28125-34.132813-34.132813v-290.132812c0-18.851563 15.28125-34.132813 34.132813-34.132813zm0 0" fill="#a4c2f7"/><path d="m42.667969 8.535156h401.066406c18.851563 0 34.132813 15.28125 34.132813 34.132813v290.132812c0 18.851563-15.28125 34.132813-34.132813 34.132813h-401.066406c-18.851563 0-34.132813-15.28125-34.132813-34.132813v-290.132812c0-18.851563 15.28125-34.132813 34.132813-34.132813zm0 0" fill="#d4e1f4"/><path d="m42.667969 366.933594h25.597656c-18.851563 0-34.132813-15.28125-34.132813-34.132813v-290.132812c0-18.851563 15.28125-34.132813 34.132813-34.132813h-25.597656c-18.851563 0-34.132813 15.28125-34.132813 34.132813v290.132812c0 18.851563 15.28125 34.132813 34.132813 34.132813zm0 0" fill="#fff"/><path d="m17.066406 42.667969v290.132812h-17.066406v-290.132812zm0 0" fill="#fff"/><g fill="#428dff"><path d="m8.535156 119.464844c2.257813-.03125 4.421875-.914063 6.058594-2.472656 3.296875-3.363282 3.296875-8.753907 0-12.117188l-1.28125-1.023438c-.476562-.324218-.992188-.582031-1.535156-.769531-.484375-.246093-1.003906-.417969-1.539063-.511719-.5625-.09375-1.132812-.152343-1.703125-.171874-2.261718.035156-4.425781.917968-6.058594 2.476562-.773437.816406-1.382812 1.769531-1.792968 2.816406-1.289063 3.183594-.5859378 6.824219 1.792968 9.300782.8125.769531 1.769532 1.378906 2.8125 1.792968 1.027344.4375 2.128907.667969 3.246094.679688zm0 0"/><path d="m469.332031 0h-426.664062c-23.554688.0273438-42.6406252 19.113281-42.667969 42.667969v34.132812c0 4.710938 3.820312 8.53125 8.535156 8.53125 4.710938 0 8.53125-3.820312 8.53125-8.53125v-34.132812c0-14.140625 11.460938-25.601563 25.601563-25.601563h426.664062c14.140625 0 25.601563 11.460938 25.601563 25.601563v290.132812c0 14.136719-11.460938 25.597657-25.601563 25.597657h-426.664062c-14.140625 0-25.601563-11.460938-25.601563-25.597657v-187.734375c0-4.710937-3.820312-8.53125-8.53125-8.53125-4.714844 0-8.535156 3.820313-8.535156 8.53125v187.734375c.0273438 23.550781 19.113281 42.636719 42.667969 42.664063h426.664062c23.554688-.027344 42.640625-19.113282 42.667969-42.664063v-290.132812c-.027344-23.554688-19.113281-42.6406252-42.667969-42.667969zm0 0"/><path d="m477.867188 59.734375c0-14.140625-11.460938-25.601563-25.601563-25.601563h-42.664063c-4.714843 0-8.535156 3.820313-8.535156 8.535157 0 4.710937 3.820313 8.53125 8.535156 8.53125h42.664063c4.714844 0 8.535156 3.820312 8.535156 8.535156v42.664063c0 4.714843 3.820313 8.535156 8.53125 8.535156 4.714844 0 8.535157-3.820313 8.535157-8.535156zm0 0"/><path d="m469.332031 264.535156c-4.710937 0-8.53125 3.820313-8.53125 8.53125v42.667969c0 4.710937-3.820312 8.53125-8.535156 8.53125h-42.664063c-4.714843 0-8.535156 3.820313-8.535156 8.535156 0 4.710938 3.820313 8.53125 8.535156 8.53125h42.664063c14.140625 0 25.601563-11.460937 25.601563-25.597656v-42.667969c0-4.710937-3.820313-8.53125-8.535157-8.53125zm0 0"/><path d="m102.398438 34.132812h-42.664063c-14.140625 0-25.601563 11.460938-25.601563 25.601563v42.664063c0 4.714843 3.820313 8.535156 8.535157 8.535156 4.710937 0 8.53125-3.820313 8.53125-8.535156v-42.664063c0-4.714844 3.820312-8.535156 8.535156-8.535156h42.664063c4.714843 0 8.535156-3.820313 8.535156-8.53125 0-4.714844-3.820313-8.535157-8.535156-8.535157zm0 0"/><path d="m34.132812 315.734375c0 14.136719 11.460938 25.597656 25.601563 25.597656h42.664063c4.714843 0 8.535156-3.820312 8.535156-8.53125 0-4.714843-3.820313-8.535156-8.535156-8.535156h-42.664063c-4.714844 0-8.535156-3.820313-8.535156-8.53125v-42.667969c0-4.710937-3.820313-8.53125-8.53125-8.53125-4.714844 0-8.535157 3.820313-8.535157 8.53125zm0 0"/><path d="m114.203125 111.582031c-3.191406-1.320312-6.863281-.589843-9.304687 1.851563l-25.597657 25.601562c-3.234375 3.347656-3.1875 8.667969.101563 11.960938 3.292968 3.292968 8.617187 3.335937 11.964844.105468l11.03125-11.035156v107.398438h-17.066407c-4.710937 0-8.53125 3.824218-8.53125 8.535156s3.820313 8.535156 8.53125 8.535156h51.203125c4.710938 0 8.53125-3.824218 8.53125-8.535156s-3.820312-8.535156-8.53125-8.535156h-17.070312v-128c.003906-3.449219-2.074219-6.5625-5.261719-7.882813zm0 0"/><path d="m247.464844 128c4.714844 0 8.535156-3.820312 8.535156-8.535156 0-4.710938-3.820312-8.53125-8.535156-8.53125-.851563 0-85.332032 1.167968-85.332032 102.398437-.078124 23.308594 15.539063 43.75 38.050782 49.796875 22.507812 6.046875 46.269531-3.816406 57.878906-24.023437 11.609375-20.210938 8.164062-45.707031-8.402344-62.105469-16.5625-16.398438-42.089844-19.59375-62.183594-7.785156 10.507813-24.046875 33.773438-40.03125 59.988282-41.214844zm-34.132813 51.199219c18.851563 0 34.132813 15.28125 34.132813 34.132812 0 18.851563-15.28125 34.132813-34.132813 34.132813-18.851562 0-34.132812-15.28125-34.132812-34.132813 0-18.851562 15.28125-34.132812 34.132812-34.132812zm0 0"/><path d="m332.800781 162.132812c-.039062 18.359376 9.777344 35.328126 25.707031 44.449219 15.933594 9.121094 35.535157 8.996094 51.347657-.332031-10.503907 24.050781-33.769531 40.035156-59.988281 41.214844-4.714844 0-8.535157 3.824218-8.535157 8.535156s3.820313 8.535156 8.535157 8.535156c.851562 0 85.332031-1.171875 85.332031-102.402344 0-28.277343-22.921875-51.199218-51.199219-51.199218s-51.199219 22.921875-51.199219 51.199218zm85.332031 0c0 18.851563-15.28125 34.132813-34.132812 34.132813s-34.132812-15.28125-34.132812-34.132813c0-18.851562 15.28125-34.132812 34.132812-34.132812s34.132812 15.28125 34.132812 34.132812zm0 0"/><path d="m298.667969 179.199219c4.710937 0 8.53125-3.820313 8.53125-8.53125 0-4.714844-3.820313-8.535157-8.53125-8.535157-4.714844 0-8.535157 3.820313-8.535157 8.535157 0 4.710937 3.820313 8.53125 8.535157 8.53125zm0 0"/><path d="m290.132812 213.375c.011719 4.710938 3.835938 8.519531 8.542969 8.511719 4.710938-.003907 8.523438-3.824219 8.523438-8.53125 0-4.710938-3.8125-8.527344-8.523438-8.535157-4.707031-.003906-8.53125 3.804688-8.542969 8.511719zm0 0"/></g></svg>