<svg height="512pt" viewBox="0 -68 512.00003 512" width="512pt" xmlns="http://www.w3.org/2000/svg"><path d="m42.667969 8.535156h401.066406c18.851563 0 34.132813 15.28125 34.132813 34.132813v290.132812c0 18.851563-15.28125 34.132813-34.132813 34.132813h-401.066406c-18.851563 0-34.132813-15.28125-34.132813-34.132813v-290.132812c0-18.851563 15.28125-34.132813 34.132813-34.132813zm0 0" fill="#d4e1f4"/><path d="m42.667969 8.535156h426.664062c18.851563 0 34.132813 15.28125 34.132813 34.132813v290.132812c0 18.851563-15.28125 34.132813-34.132813 34.132813h-426.664062c-18.851563 0-34.132813-15.28125-34.132813-34.132813v-290.132812c0-18.851563 15.28125-34.132813 34.132813-34.132813zm0 0" fill="#a4c2f7"/><path d="m477.867188 42.667969v290.132812c.476562 18.359375-14.007813 33.636719-32.367188 34.132813h-404.601562c-18.355469-.496094-32.84375-15.773438-32.363282-34.132813v-290.132812c-.480468-18.359375 14.007813-33.636719 32.363282-34.132813h404.601562c18.359375.496094 32.84375 15.773438 32.367188 34.132813zm0 0" fill="#d4e1f4"/><path d="m40.898438 366.933594h25.601562c-18.359375-.496094-32.84375-15.773438-32.367188-34.132813v-290.132812c-.476562-18.359375 14.007813-33.636719 32.367188-34.132813h-25.601562c-18.355469.496094-32.84375 15.773438-32.363282 34.132813v290.132812c-.480468 18.359375 14.007813 33.636719 32.363282 34.132813zm0 0" fill="#fff"/><path d="m17.066406 42.667969v290.132812h-17.066406v-290.132812zm0 0" fill="#fff"/><g fill="#428dff"><path d="m8.535156 119.464844c2.257813-.03125 4.421875-.914063 6.058594-2.472656 3.296875-3.363282 3.296875-8.753907 0-12.117188l-1.28125-1.023438c-.476562-.324218-.992188-.582031-1.535156-.769531-.484375-.246093-1.003906-.417969-1.539063-.511719-.5625-.09375-1.132812-.152343-1.703125-.171874-2.261718.035156-4.425781.917968-6.058594 2.476562-.773437.816406-1.382812 1.769531-1.792968 2.816406-1.289063 3.183594-.5859378 6.824219 1.792968 9.300782.8125.769531 1.769532 1.378906 2.8125 1.792968 1.027344.4375 2.128907.667969 3.246094.679688zm0 0"/><path d="m469.332031 0h-426.664062c-23.554688.0273438-42.6406252 19.113281-42.667969 42.667969v34.132812c0 4.710938 3.820312 8.53125 8.535156 8.53125 4.710938 0 8.53125-3.820312 8.53125-8.53125v-34.132812c0-14.140625 11.460938-25.601563 25.601563-25.601563h426.664062c14.140625 0 25.601563 11.460938 25.601563 25.601563v290.132812c0 14.136719-11.460938 25.597657-25.601563 25.597657h-426.664062c-14.140625 0-25.601563-11.460938-25.601563-25.597657v-187.734375c0-4.710937-3.820312-8.53125-8.53125-8.53125-4.714844 0-8.535156 3.820313-8.535156 8.53125v187.734375c.0273438 23.550781 19.113281 42.636719 42.667969 42.664063h426.664062c23.554688-.027344 42.640625-19.113282 42.667969-42.664063v-290.132812c-.027344-23.554688-19.113281-42.6406252-42.667969-42.667969zm0 0"/><path d="m42.667969 110.933594c4.710937 0 8.53125-3.820313 8.53125-8.535156v-42.664063c0-.589844.0625-1.175781.179687-1.75.109375-.535156.273438-1.058594.488282-1.5625.21875-.519531.492187-1.015625.808593-1.484375.308594-.457031.664063-.882812 1.058594-1.269531.382813-.378907.800781-.722657 1.246094-1.027344.460937-.304687.949219-.566406 1.460937-.785156.492188-.207031 1.007813-.367188 1.535156-.476563.578126-.121094 1.167969-.179687 1.757813-.179687h42.664063c4.714843 0 8.535156-3.820313 8.535156-8.53125 0-4.714844-3.820313-8.535157-8.535156-8.535157h-42.664063c-1.734375.003907-3.464844.175782-5.164063.519532-1.644531.339844-3.253906.84375-4.804687 1.496094-4.558594 1.933593-8.460937 5.148437-11.238281 9.25-.933594 1.371093-1.730469 2.832031-2.378906 4.359374-.648438 1.542969-1.144532 3.140626-1.484376 4.777344-.355468 1.710938-.53125 3.453125-.53125 5.199219v42.664063c0 4.714843 3.820313 8.535156 8.535157 8.535156zm0 0"/><path d="m34.132812 315.734375c-.003906 1.71875.171876 3.433594.519532 5.117187.660156 3.28125 1.964844 6.398438 3.839844 9.167969 2.78125 4.109375 6.6875 7.332031 11.25 9.28125 3.160156 1.34375 6.558593 2.035157 9.992187 2.03125h42.664063c4.714843 0 8.535156-3.820312 8.535156-8.53125 0-4.714843-3.820313-8.535156-8.535156-8.535156h-42.664063c-1.140625.003906-2.269531-.222656-3.320313-.664063-.507812-.21875-.992187-.484374-1.449218-.792968-.460938-.3125-.890625-.667969-1.28125-1.058594-.386719-.386719-.734375-.808594-1.042969-1.261719-.300781-.457031-.5625-.941406-.773437-1.445312-.222657-.515625-.386719-1.050781-.496094-1.601563-.117188-.5625-.175782-1.132812-.171875-1.707031v-42.667969c0-4.710937-3.820313-8.53125-8.53125-8.53125-4.714844 0-8.535157 3.820313-8.535157 8.53125zm0 0"/><path d="m409.601562 341.332031h42.664063c1.71875-.003906 3.4375-.175781 5.121094-.519531 1.644531-.339844 3.253906-.839844 4.804687-1.492188 4.558594-1.9375 8.460938-5.148437 11.238282-9.25.933593-1.375 1.730468-2.835937 2.378906-4.363281.648437-1.539062 1.144531-3.140625 1.488281-4.777343.367187-1.707032.558594-3.449219.570313-5.195313v-42.667969c0-4.710937-3.820313-8.53125-8.535157-8.53125-4.710937 0-8.53125 3.820313-8.53125 8.53125v42.667969c-.003906.574219-.066406 1.144531-.179687 1.707031-.109375.535156-.273438 1.058594-.488282 1.558594-.21875.523438-.492187 1.019531-.808593 1.488281-.308594.457031-.664063.882813-1.058594 1.269531-.382813.378907-.800781.71875-1.246094 1.023438-.460937.308594-.949219.570312-1.460937.785156-.492188.210938-1.007813.371094-1.535156.476563-.574219.136719-1.164063.210937-1.757813.222656h-42.664063c-4.714843 0-8.535156 3.820313-8.535156 8.535156 0 4.710938 3.820313 8.53125 8.535156 8.53125zm0 0"/><path d="m469.332031 110.933594c4.714844 0 8.535157-3.820313 8.535157-8.535156v-42.664063c.003906-1.722656-.171876-3.4375-.519532-5.121094-.660156-3.28125-1.964844-6.394531-3.839844-9.164062-2.78125-4.109375-6.6875-7.335938-11.25-9.285157-3.160156-1.34375-6.558593-2.035156-9.992187-2.03125h-42.664063c-4.714843 0-8.535156 3.820313-8.535156 8.535157 0 4.710937 3.820313 8.53125 8.535156 8.53125h42.664063c1.140625 0 2.269531.226562 3.320313.667969.507812.214843.992187.480468 1.449218.792968.460938.3125.890625.664063 1.28125 1.058594.386719.386719.734375.808594 1.042969 1.261719.300781.453125.5625.9375.773437 1.441406.222657.523437.390626 1.070313.496094 1.628906.113282.554688.171875 1.117188.171875 1.683594v42.664063c0 4.714843 3.820313 8.535156 8.53125 8.535156zm0 0"/><path d="m338.945312 246.757812c-7.648437 1.871094-15.726562.125-21.921874-4.730468-6.195313-4.859375-9.816407-12.289063-9.824219-20.160156 0-4.714844-3.820313-8.535157-8.53125-8.535157-4.714844 0-8.535157 3.820313-8.535157 8.535157 0 11.324218 4.503907 22.183593 12.515626 30.1875 8.011718 8.003906 18.878906 12.492187 30.203124 12.480468 3.328126-.003906 6.644532-.378906 9.890626-1.121094 15.679687-3.644531 27.925781-15.890624 31.574218-31.570312 3.863282-16.558594-2.371094-33.835938-15.917968-44.109375 13.539062-10.265625 19.78125-27.527344 15.933593-44.074219-3.648437-15.683594-15.890625-27.925781-31.574219-31.574218-12.78125-3.011719-26.238281 0-36.523437 8.164062-10.183594 8.070312-16.117187 20.355469-16.101563 33.351562 0 4.710938 3.820313 8.53125 8.535157 8.53125 4.710937 0 8.53125-3.820312 8.53125-8.53125.003906-12.59375 9.167969-23.316406 21.609375-25.28125 12.4375-1.964843 24.457031 5.410157 28.34375 17.390626 3.882812 11.980468-1.523438 25.007812-12.746094 30.714843-4.230469 2.183594-6.890625 6.546875-6.890625 11.308594s2.660156 9.121094 6.890625 11.304687c9.566406 4.832032 15.113281 15.109376 13.894531 25.757813-1.214843 10.648437-8.9375 19.414063-19.347656 21.960937zm0 0"/><path d="m212.003906 124.050781c1.636719-2.574219 1.777344-5.824219.367188-8.53125-1.410156-2.703125-4.15625-4.449219-7.203125-4.582031-3.046875-.128906-5.933594 1.375-7.570313 3.945312l-59.734375 93.867188c-1.671875 2.628906-1.78125 5.960938-.28125 8.691406 1.5 2.730469 4.371094 4.425782 7.484375 4.425782h42.667969v34.132812c0 4.710938 3.820313 8.535156 8.53125 8.535156 4.714844 0 8.535156-3.824218 8.535156-8.535156v-34.132812h17.066407c4.710937 0 8.53125-3.820313 8.53125-8.535157 0-4.710937-3.820313-8.53125-8.53125-8.53125h-17.066407v-17.066406c0-4.714844-3.820312-8.535156-8.535156-8.535156-4.710937 0-8.53125 3.820312-8.53125 8.535156v17.066406h-27.128906zm0 0"/><path d="m248.148438 216.574219c.777343 2.144531 2.464843 3.832031 4.609374 4.609375 1.011719.480468 2.121094.710937 3.242188.683594 2.257812-.035157 4.421875-.917969 6.058594-2.476563.753906-.828125 1.359375-1.78125 1.792968-2.816406.910157-2.0625.910157-4.417969 0-6.484375-.777343-2.144532-2.464843-3.832032-4.609374-4.605469-2.078126-.855469-4.40625-.855469-6.484376 0-2.144531.773437-3.832031 2.460937-4.609374 4.605469-.910157 2.066406-.910157 4.421875 0 6.484375zm0 0"/><path d="m249.941406 176.683594c.828125.753906 1.78125 1.359375 2.816406 1.792968 1.007813.492188 2.121094.738282 3.242188.722657 2.257812-.03125 4.421875-.914063 6.058594-2.472657.753906-.832031 1.359375-1.785156 1.792968-2.816406.910157-2.066406.910157-4.421875 0-6.484375-.777343-2.144531-2.464843-3.832031-4.609374-4.609375-2.078126-.855468-4.40625-.855468-6.484376 0-2.144531.777344-3.832031 2.464844-4.609374 4.609375-.910157 2.0625-.910157 4.417969 0 6.484375.4375 1.019532 1.042968 1.957032 1.792968 2.773438zm0 0"/></g></svg>