<?xml version="1.0" encoding="iso-8859-1"?>
<!-- Generator: Adobe Illustrator 19.0.0, SVG Export Plug-In . SVG Version: 6.00 Build 0)  -->
<svg version="1.1" id="Capa_1" xmlns="http://www.w3.org/2000/svg" xmlns:xlink="http://www.w3.org/1999/xlink" x="0px" y="0px"
	 viewBox="0 0 512 512" style="enable-background:new 0 0 512 512;" xml:space="preserve">
<linearGradient id="SVGID_1_" gradientUnits="userSpaceOnUse" x1="0" y1="258" x2="512" y2="258" gradientTransform="matrix(1 0 0 -1 0 514)">
	<stop  offset="0" style="stop-color:#00F2FE"/>
	<stop  offset="0.021" style="stop-color:#03EFFE"/>
	<stop  offset="0.293" style="stop-color:#24D2FE"/>
	<stop  offset="0.554" style="stop-color:#3CBDFE"/>
	<stop  offset="0.796" style="stop-color:#4AB0FE"/>
	<stop  offset="1" style="stop-color:#4FACFE"/>
</linearGradient>
<path style="fill:url(#SVGID_1_);" d="M236,492L236,492c0-11.046,8.954-20,20-20l0,0c11.046,0,20,8.954,20,20l0,0
	c0,11.046-8.954,20-20,20l0,0C244.954,512,236,503.046,236,492z M178,512L178,512c11.046,0,20-8.954,20-20l0,0
	c0-11.046-8.954-20-20-20l0,0c-11.046,0-20,8.954-20,20l0,0C158,503.046,166.954,512,178,512z M256,276L256,276
	c11.046,0,20-8.954,20-20l0,0c0-11.046-8.954-20-20-20l0,0c-11.046,0-20,8.954-20,20l0,0C236,267.046,244.954,276,256,276z M256,433
	L256,433c11.046,0,20-8.954,20-20l0,0c0-11.046-8.954-20-20-20l0,0c-11.046,0-20,8.954-20,20l0,0C236,424.046,244.954,433,256,433z
	 M256,354L256,354c11.046,0,20-8.954,20-20l0,0c0-11.046-8.954-20-20-20l0,0c-11.046,0-20,8.954-20,20l0,0
	C236,345.046,244.954,354,256,354z M236,20L236,20c0,11.046,8.954,20,20,20l0,0c11.046,0,20-8.954,20-20l0,0
	c0-11.046-8.954-20-20-20l0,0C244.954,0,236,8.954,236,20z M236,99L236,99c0,11.046,8.954,20,20,20l0,0c11.046,0,20-8.954,20-20l0,0
	c0-11.046-8.954-20-20-20l0,0C244.954,79,236,87.954,236,99z M236,178L236,178c0,11.046,8.954,20,20,20l0,0c11.046,0,20-8.954,20-20
	l0,0c0-11.046-8.954-20-20-20l0,0C244.954,158,236,166.954,236,178z M492,276L492,276c11.046,0,20-8.954,20-20l0,0
	c0-11.046-8.954-20-20-20l0,0c-11.046,0-20,8.954-20,20l0,0C472,267.046,480.954,276,492,276z M492,433L492,433
	c11.046,0,20-8.954,20-20l0,0c0-11.046-8.954-20-20-20l0,0c-11.046,0-20,8.954-20,20l0,0C472,424.046,480.954,433,492,433z M492,512
	L492,512c11.046,0,20-8.954,20-20l0,0c0-11.046-8.954-20-20-20l0,0c-11.046,0-20,8.954-20,20l0,0C472,503.046,480.954,512,492,512z
	 M492,354L492,354c11.046,0,20-8.954,20-20l0,0c0-11.046-8.954-20-20-20l0,0c-11.046,0-20,8.954-20,20l0,0
	C472,345.046,480.954,354,492,354z M472,99L472,99c0,11.046,8.954,20,20,20l0,0c11.046,0,20-8.954,20-20l0,0
	c0-11.046-8.954-20-20-20l0,0C480.954,79,472,87.954,472,99z M472,20L472,20c0,11.046,8.954,20,20,20l0,0c11.046,0,20-8.954,20-20
	l0,0c0-11.046-8.954-20-20-20l0,0C480.954,0,472,8.954,472,20z M472,178L472,178c0,11.046,8.954,20,20,20l0,0
	c11.046,0,20-8.954,20-20l0,0c0-11.046-8.954-20-20-20l0,0C480.954,158,472,166.954,472,178z M100,512L100,512
	c11.046,0,20-8.954,20-20l0,0c0-11.046-8.954-20-20-20l0,0c-11.046,0-20,8.954-20,20l0,0C80,503.046,88.954,512,100,512z M178,40
	L178,40c11.046,0,20-8.954,20-20l0,0c0-11.046-8.954-20-20-20l0,0c-11.046,0-20,8.954-20,20l0,0C158,31.046,166.954,40,178,40z
	 M100,40L100,40c11.046,0,20-8.954,20-20l0,0c0-11.046-8.954-20-20-20l0,0C88.954,0,80,8.954,80,20l0,0C80,31.046,88.954,40,100,40z
	 M178,276L178,276c11.046,0,20-8.954,20-20l0,0c0-11.046-8.954-20-20-20l0,0c-11.046,0-20,8.954-20,20l0,0
	C158,267.046,166.954,276,178,276z M100,276L100,276c11.046,0,20-8.954,20-20l0,0c0-11.046-8.954-20-20-20l0,0
	c-11.046,0-20,8.954-20,20l0,0C80,267.046,88.954,276,100,276z M354,492L354,492c0-11.046-8.954-20-20-20l0,0
	c-11.046,0-20,8.954-20,20l0,0c0,11.046,8.954,20,20,20l0,0C345.046,512,354,503.046,354,492z M432,492L432,492
	c0-11.046-8.954-20-20-20l0,0c-11.046,0-20,8.954-20,20l0,0c0,11.046,8.954,20,20,20l0,0C423.046,512,432,503.046,432,492z M354,20
	L354,20c0-11.046-8.954-20-20-20l0,0c-11.046,0-20,8.954-20,20l0,0c0,11.046,8.954,20,20,20l0,0C345.046,40,354,31.046,354,20z
	 M432,20L432,20c0-11.046-8.954-20-20-20l0,0c-11.046,0-20,8.954-20,20l0,0c0,11.046,8.954,20,20,20l0,0
	C423.046,40,432,31.046,432,20z M40,492V20C40,8.954,31.046,0,20,0S0,8.954,0,20v472c0,11.046,8.954,20,20,20S40,503.046,40,492z
	 M354,256L354,256c0-11.046-8.954-20-20-20l0,0c-11.046,0-20,8.954-20,20l0,0c0,11.046,8.954,20,20,20l0,0
	C345.046,276,354,267.046,354,256z M432,256L432,256c0-11.046-8.954-20-20-20l0,0c-11.046,0-20,8.954-20,20l0,0
	c0,11.046,8.954,20,20,20l0,0C423.046,276,432,267.046,432,256z"/>
<g>
</g>
<g>
</g>
<g>
</g>
<g>
</g>
<g>
</g>
<g>
</g>
<g>
</g>
<g>
</g>
<g>
</g>
<g>
</g>
<g>
</g>
<g>
</g>
<g>
</g>
<g>
</g>
<g>
</g>
</svg>
