<svg id="Capa_1" enable-background="new 0 0 496.262 496.262" height="512" viewBox="0 0 496.262 496.262" width="512" xmlns="http://www.w3.org/2000/svg"><g><g><path d="m68.168 255.131h-39.962c-4.142 0-7.5-3.357-7.5-7.5s3.358-7.5 7.5-7.5h39.962c4.142 0 7.5 3.357 7.5 7.5s-3.358 7.5-7.5 7.5z" fill="#c8effe"/></g><g><path d="m242.474 255.712h-33.81c-4.142 0-7.5-3.357-7.5-7.5s3.358-7.5 7.5-7.5h33.81c4.142 0 7.5 3.357 7.5 7.5s-3.357 7.5-7.5 7.5z" fill="#c8effe"/></g><g><path d="m178.472 255.616h-18.81c-4.142 0-7.5-3.357-7.5-7.5s3.358-7.5 7.5-7.5h18.81c4.142 0 7.5 3.357 7.5 7.5s-3.358 7.5-7.5 7.5z" fill="#c8effe"/></g><g><path d="m118.499 255.923h-18.809c-4.142 0-7.5-3.357-7.5-7.5s3.358-7.5 7.5-7.5h18.81c4.142 0 7.5 3.357 7.5 7.5s-3.359 7.5-7.501 7.5z" fill="#c8effe"/></g><g><path d="m248.996 461.083c-4.142 0-7.5-3.357-7.5-7.5v-23.962c0-4.143 3.358-7.5 7.5-7.5s7.5 3.357 7.5 7.5v23.962c0 4.143-3.357 7.5-7.5 7.5z" fill="#c8effe"/></g><g><path d="m249.577 296.625c-4.142 0-7.5-3.357-7.5-7.5v-34.81c0-4.143 3.358-7.5 7.5-7.5s7.5 3.357 7.5 7.5v34.81c0 4.143-3.357 7.5-7.5 7.5z" fill="#c8effe"/></g><g><path d="m249.481 345.627c-4.142 0-7.5-3.357-7.5-7.5v-18.81c0-4.143 3.358-7.5 7.5-7.5s7.5 3.357 7.5 7.5v18.81c0 4.143-3.358 7.5-7.5 7.5z" fill="#c8effe"/></g><g><path d="m249.788 405.6c-4.142 0-7.5-3.357-7.5-7.5v-18.81c0-4.143 3.358-7.5 7.5-7.5s7.5 3.357 7.5 7.5v18.81c0 4.142-3.358 7.5-7.5 7.5z" fill="#c8effe"/></g></g><g><path d="m474.159 475.532c-4.142 0-7.5-3.357-7.5-7.5v-217.992c0-4.143 3.358-7.5 7.5-7.5s7.5 3.357 7.5 7.5v217.992c0 4.143-3.358 7.5-7.5 7.5z" fill="#c8effe"/></g><g><path d="m470.556 482.636h-217.876c-4.142 0-7.5-3.357-7.5-7.5s3.358-7.5 7.5-7.5h217.876c4.142 0 7.5 3.357 7.5 7.5s-3.357 7.5-7.5 7.5z" fill="#c8effe"/></g><g><path d="m246.474 482.636h-223.268c-4.142 0-7.5-3.357-7.5-7.5s3.358-7.5 7.5-7.5h223.268c4.142 0 7.5 3.357 7.5 7.5s-3.357 7.5-7.5 7.5z" fill="#c8effe"/></g><g><path d="m22.103 479.532c-4.142 0-7.5-3.357-7.5-7.5v-214.992c0-4.143 3.358-7.5 7.5-7.5s7.5 3.357 7.5 7.5v214.992c0 4.143-3.358 7.5-7.5 7.5z" fill="#c8effe"/></g><g><path d="m22.103 243.722c-4.142 0-7.5-3.357-7.5-7.5v-204.993c0-4.143 3.358-7.5 7.5-7.5s7.5 3.357 7.5 7.5v204.992c0 4.143-3.358 7.501-7.5 7.501z" fill="#c8effe"/></g><g><path d="m464.556 29.626h-207.875c-4.142 0-7.5-3.357-7.5-7.5s3.358-7.5 7.5-7.5h207.876c4.142 0 7.5 3.357 7.5 7.5s-3.358 7.5-7.501 7.5z" fill="#c8effe"/></g><g><path d="m239.474 29.626h-208.268c-4.142 0-7.5-3.357-7.5-7.5s3.358-7.5 7.5-7.5h208.268c4.142 0 7.5 3.357 7.5 7.5s-3.357 7.5-7.5 7.5z" fill="#c8effe"/></g><g><path d="m474.159 250.722c-4.142 0-7.5-3.357-7.5-7.5v-218.993c0-4.143 3.358-7.5 7.5-7.5s7.5 3.357 7.5 7.5v218.992c0 4.143-3.358 7.501-7.5 7.501z" fill="#c8effe"/></g><path d="m252.234 244.258c-2.992-2.868-7.739-2.765-10.604.227l-17.763 18.538-50.299 50.299 1.083-10.406c.428-4.12-2.564-7.808-6.684-8.236-4.119-.425-7.808 2.563-8.236 6.684l-3.24 31.143c-.234 2.248.559 4.481 2.157 6.08 1.414 1.413 3.325 2.196 5.303 2.196.258 0 .517-.014.776-.04l29.815-3.102c4.12-.429 7.112-4.116 6.684-8.236-.429-4.119-4.121-7.104-8.236-6.684l-8.49.883 50.03-50.03c.038-.038.075-.076.112-.115l17.819-18.597c2.865-2.991 2.764-7.739-.227-10.604z" fill="#ee6161"/><path d="m338.99 158.241c-1.598-1.598-3.834-2.386-6.08-2.156l-31.143 3.241c-4.12.429-7.112 4.116-6.683 8.236.428 4.12 4.122 7.106 8.236 6.684l10.407-1.083-49.436 49.436-12.558 12.756c-2.906 2.952-2.869 7.7.083 10.606 1.461 1.438 3.362 2.155 5.261 2.155 1.939 0 3.877-.747 5.345-2.238l12.516-12.714 49.069-49.068-.883 8.488c-.429 4.12 2.564 7.808 6.684 8.236.264.027.526.041.786.041 3.793-.001 7.049-2.869 7.451-6.725l3.102-29.815c.234-2.248-.559-4.481-2.157-6.08z" fill="#ee6161"/><g fill="#01c0fa"><path d="m37.143 44.229h-30.08c-3.901 0-7.063-3.162-7.063-7.063v-30.08c0-3.901 3.162-7.063 7.063-7.063h30.08c3.901 0 7.063 3.162 7.063 7.063v30.08c0 3.901-3.162 7.063-7.063 7.063z"/><path d="m248.577 44.229c-12.207 0-22.103-9.896-22.103-22.103 0-12.207 9.896-22.103 22.103-22.103 12.207 0 22.103 9.896 22.103 22.103.001 12.207-9.895 22.103-22.103 22.103z"/><path d="m489.198 44.229h-30.08c-3.901 0-7.063-3.162-7.063-7.063v-30.08c0-3.901 3.162-7.063 7.063-7.063h30.08c3.901 0 7.063 3.162 7.063 7.063v30.08c.001 3.901-3.162 7.063-7.063 7.063z"/><path d="m37.143 496.239h-30.08c-3.901 0-7.063-3.162-7.063-7.063v-30.08c0-3.901 3.162-7.063 7.063-7.063h30.08c3.901 0 7.063 3.162 7.063 7.063v30.08c0 3.9-3.162 7.063-7.063 7.063z"/><path d="m37.748 270.734h-31.29c-3.567 0-6.458-2.892-6.458-6.458v-31.29c0-3.567 2.892-6.458 6.458-6.458h31.29c3.567 0 6.458 2.892 6.458 6.458v31.29c0 3.566-2.891 6.458-6.458 6.458z"/><path d="m473.659 270.734c-12.207 0-22.103-9.896-22.103-22.103 0-12.207 9.896-22.103 22.103-22.103 12.207 0 22.103 9.896 22.103 22.103.001 12.207-9.895 22.103-22.103 22.103z"/><path d="m263.617 496.239h-30.08c-3.901 0-7.063-3.162-7.063-7.063v-30.08c0-3.901 3.162-7.063 7.063-7.063h30.08c3.901 0 7.063 3.162 7.063 7.063v30.08c.001 3.9-3.162 7.063-7.063 7.063z"/><path d="m489.198 496.239h-30.08c-3.901 0-7.063-3.162-7.063-7.063v-30.08c0-3.901 3.162-7.063 7.063-7.063h30.08c3.901 0 7.063 3.162 7.063 7.063v30.08c.001 3.9-3.162 7.063-7.063 7.063z"/><path d="m265.222 270.315h-31.29c-3.567 0-6.458-2.892-6.458-6.458v-31.29c0-3.567 2.892-6.458 6.458-6.458h31.29c3.567 0 6.458 2.892 6.458 6.458v31.29c.001 3.567-2.891 6.458-6.458 6.458z"/></g></svg>