<?xml version="1.0" encoding="iso-8859-1"?>
<!-- Generator: Adobe Illustrator 19.0.0, SVG Export Plug-In . SVG Version: 6.00 Build 0)  -->
<svg version="1.1" id="Capa_1" xmlns="http://www.w3.org/2000/svg" xmlns:xlink="http://www.w3.org/1999/xlink" x="0px" y="0px"
	 viewBox="0 0 512.231 512.231" style="enable-background:new 0 0 512.231 512.231;" xml:space="preserve">
<g>
	<path style="fill:#0085E0;" d="M497.231,73.962c-8.157,0-14.769-6.613-14.769-14.769V29.654h-29.538
		c-8.157,0-14.769-6.613-14.769-14.769s6.613-14.769,14.769-14.769h44.308c8.157,0,14.769,6.613,14.769,14.769v44.308
		C512,67.349,505.387,73.962,497.231,73.962z"/>
	<path style="fill:#0085E0;" d="M497.231,512.115h-44.308c-8.157,0-14.769-6.613-14.769-14.769s6.613-14.769,14.769-14.769h29.538
		v-29.538c0-8.157,6.613-14.769,14.769-14.769S512,444.882,512,453.038v44.308C512,505.503,505.387,512.115,497.231,512.115z"/>
	<path style="fill:#0085E0;" d="M312.76,512.115h-32.434c-8.157,0-14.769-6.613-14.769-14.769s6.613-14.769,14.769-14.769h32.434
		c8.157,0,14.769,6.613,14.769,14.769S320.918,512.115,312.76,512.115z"/>
	<path style="fill:#0085E0;" d="M393.846,512.115h-32.434c-8.157,0-14.769-6.613-14.769-14.769s6.613-14.769,14.769-14.769h32.434
		c8.157,0,14.769,6.613,14.769,14.769S402.003,512.115,393.846,512.115z"/>
	<path style="fill:#0085E0;" d="M461.61,270.885h-22.587c-8.157,0-14.769-6.613-14.769-14.769s6.613-14.769,14.769-14.769h22.587
		c8.157,0,14.769,6.613,14.769,14.769S469.767,270.885,461.61,270.885z"/>
	<path style="fill:#0085E0;" d="M312.76,270.885h-32.434c-8.157,0-14.769-6.613-14.769-14.769s6.613-14.769,14.769-14.769h32.434
		c8.157,0,14.769,6.613,14.769,14.769S320.918,270.885,312.76,270.885z"/>
	<path style="fill:#0085E0;" d="M393.846,270.885h-32.434c-8.157,0-14.769-6.613-14.769-14.769s6.613-14.769,14.769-14.769h32.434
		c8.157,0,14.769,6.613,14.769,14.769S402.003,270.885,393.846,270.885z"/>
	<path style="fill:#0085E0;" d="M256,408.731c-8.157,0-14.769-6.613-14.769-14.769v-32.434c0-8.157,6.613-14.769,14.769-14.769
		s14.769,6.613,14.769,14.769v32.434C270.769,402.118,264.157,408.731,256,408.731z"/>
	<path style="fill:#0085E0;" d="M256,327.645c-8.157,0-14.769-6.613-14.769-14.769v-22.588c0-8.157,6.613-14.769,14.769-14.769
		s14.769,6.613,14.769,14.769v22.588C270.769,321.032,264.157,327.645,256,327.645z"/>
	<path style="fill:#0085E0;" d="M256,87.862c-8.157,0-14.769-6.613-14.769-14.769V50.504c0-8.157,6.613-14.769,14.769-14.769
		s14.769,6.613,14.769,14.769v22.588C270.769,81.25,264.157,87.862,256,87.862z"/>
	<path style="fill:#0085E0;" d="M256,476.496c-8.157,0-14.769-6.613-14.769-14.769v-22.588c0-8.157,6.613-14.769,14.769-14.769
		s14.769,6.613,14.769,14.769v22.588C270.769,469.883,264.157,476.496,256,476.496z"/>
	<path style="fill:#0085E0;" d="M256,236.713c-8.157,0-14.769-6.613-14.769-14.769v-22.588c0-8.157,6.613-14.769,14.769-14.769
		s14.769,6.613,14.769,14.769v22.588C270.769,230.1,264.157,236.713,256,236.713z"/>
	<path style="fill:#0085E0;" d="M256,165.473c-8.157,0-14.769-6.613-14.769-14.769v-32.434c0-8.157,6.613-14.769,14.769-14.769
		s14.769,6.613,14.769,14.769v32.434C270.769,158.861,264.157,165.473,256,165.473z"/>
</g>
<g>
	<path style="fill:#03B7ED;" d="M14.769,73.962c8.157,0,14.769-6.613,14.769-14.769V29.654h29.538
		c8.157,0,14.769-6.613,14.769-14.769S67.233,0.115,59.077,0.115H14.769C6.613,0.115,0,6.728,0,14.885v44.308
		C0,67.349,6.613,73.962,14.769,73.962z"/>
	<path style="fill:#03B7ED;" d="M59.077,482.577H29.538v-29.538c0-8.157-6.613-14.769-14.769-14.769S0,444.882,0,453.038v44.308
		c0,8.157,6.613,14.769,14.769,14.769h44.308c8.157,0,14.769-6.613,14.769-14.769S67.233,482.577,59.077,482.577z"/>
	<path style="fill:#03B7ED;" d="M14.769,165.473c8.157,0,14.769-6.613,14.769-14.769v-32.434c0-8.157-6.613-14.769-14.769-14.769
		S0,110.113,0,118.269v32.434C0,158.861,6.613,165.473,14.769,165.473z"/>
	<path style="fill:#03B7ED;" d="M14.769,246.559c8.157,0,14.769-6.613,14.769-14.769v-32.434c0-8.157-6.613-14.769-14.769-14.769
		S0,191.199,0,199.355v32.434C0,239.946,6.613,246.559,14.769,246.559z"/>
	<path style="fill:#03B7ED;" d="M14.769,327.645c8.157,0,14.769-6.613,14.769-14.769v-32.434c0-8.157-6.613-14.769-14.769-14.769
		S0,272.285,0,280.441v32.434C0,321.032,6.613,327.645,14.769,327.645z"/>
	<path style="fill:#03B7ED;" d="M14.769,408.731c8.157,0,14.769-6.613,14.769-14.769v-32.434c0-8.157-6.613-14.769-14.769-14.769
		S0,353.371,0,361.527v32.434C0,402.118,6.613,408.731,14.769,408.731z"/>
	<path style="fill:#03B7ED;" d="M150.588,482.577h-32.434c-8.157,0-14.769,6.613-14.769,14.769s6.613,14.769,14.769,14.769h32.434
		c8.157,0,14.769-6.613,14.769-14.769S158.746,482.577,150.588,482.577z"/>
	<path style="fill:#03B7ED;" d="M231.674,482.577H199.24c-8.157,0-14.769,6.613-14.769,14.769s6.613,14.769,14.769,14.769h32.434
		c8.157,0,14.769-6.613,14.769-14.769S239.831,482.577,231.674,482.577z"/>
	<path style="fill:#03B7ED;" d="M150.588,241.346h-32.434c-8.157,0-14.769,6.613-14.769,14.769s6.613,14.769,14.769,14.769h32.434
		c8.157,0,14.769-6.613,14.769-14.769S158.746,241.346,150.588,241.346z"/>
	<path style="fill:#03B7ED;" d="M231.674,241.346H199.24c-8.157,0-14.769,6.613-14.769,14.769s6.613,14.769,14.769,14.769h32.434
		c8.157,0,14.769-6.613,14.769-14.769S239.831,241.346,231.674,241.346z"/>
	<path style="fill:#03B7ED;" d="M72.977,241.346H50.39c-8.157,0-14.769,6.613-14.769,14.769s6.613,14.769,14.769,14.769h22.587
		c8.157,0,14.769-6.613,14.769-14.769S81.133,241.346,72.977,241.346z"/>
	<path style="fill:#03B7ED;" d="M150.588,0.115h-32.434c-8.157,0-14.769,6.613-14.769,14.769s6.613,14.769,14.769,14.769h32.434
		c8.157,0,14.769-6.613,14.769-14.769S158.746,0.115,150.588,0.115z"/>
	<path style="fill:#03B7ED;" d="M199.24,29.654h32.434c8.157,0,14.769-6.613,14.769-14.769s-6.613-14.769-14.769-14.769H199.24
		c-8.157,0-14.769,6.613-14.769,14.769S191.082,29.654,199.24,29.654z"/>
</g>
<g>
	<path style="fill:#0085E0;" d="M312.76,29.654h-32.434c-8.157,0-14.769-6.613-14.769-14.769s6.613-14.769,14.769-14.769h32.434
		c8.157,0,14.769,6.613,14.769,14.769S320.918,29.654,312.76,29.654z"/>
	<path style="fill:#0085E0;" d="M393.846,29.654h-32.434c-8.157,0-14.769-6.613-14.769-14.769s6.613-14.769,14.769-14.769h32.434
		c8.157,0,14.769,6.613,14.769,14.769S402.003,29.654,393.846,29.654z"/>
</g>
<g>
	
		<line style="fill:none;stroke:#29B6F6;stroke-width:30;stroke-linecap:round;stroke-linejoin:round;stroke-miterlimit:10;" x1="497.231" y1="118.269" x2="497.231" y2="150.702"/>
	
		<line style="fill:none;stroke:#29B6F6;stroke-width:30;stroke-linecap:round;stroke-linejoin:round;stroke-miterlimit:10;" x1="497.231" y1="199.352" x2="497.231" y2="231.786"/>
	
		<line style="fill:none;stroke:#29B6F6;stroke-width:30;stroke-linecap:round;stroke-linejoin:round;stroke-miterlimit:10;" x1="497.231" y1="280.445" x2="497.231" y2="312.878"/>
	
		<line style="fill:none;stroke:#29B6F6;stroke-width:30;stroke-linecap:round;stroke-linejoin:round;stroke-miterlimit:10;" x1="497.231" y1="361.528" x2="497.231" y2="393.962"/>
</g>
<g>
	<path style="fill:#03B7ED;" d="M241.231,50.504v22.588c0,8.157,6.613,14.769,14.769,14.769V35.735
		C247.843,35.735,241.231,42.348,241.231,50.504z"/>
	<path style="fill:#03B7ED;" d="M241.231,199.355v22.588c0,8.157,6.613,14.769,14.769,14.769v-52.127
		C247.843,184.586,241.231,191.199,241.231,199.355z"/>
	<path style="fill:#03B7ED;" d="M241.231,290.287v22.588c0,8.157,6.613,14.769,14.769,14.769v-52.127
		C247.843,275.518,241.231,282.131,241.231,290.287z"/>
	<path style="fill:#03B7ED;" d="M241.231,439.138v22.588c0,8.157,6.613,14.769,14.769,14.769v-52.127
		C247.843,424.368,241.231,430.981,241.231,439.138z"/>
	<path style="fill:#03B7ED;" d="M241.231,361.527v32.434c0,8.157,6.613,14.769,14.769,14.769v-61.973
		C247.843,346.758,241.231,353.37,241.231,361.527z"/>
	<path style="fill:#03B7ED;" d="M241.231,118.269v32.434c0,8.157,6.613,14.769,14.769,14.769V103.5
		C247.843,103.5,241.231,110.113,241.231,118.269z"/>
</g>
<g>
</g>
<g>
</g>
<g>
</g>
<g>
</g>
<g>
</g>
<g>
</g>
<g>
</g>
<g>
</g>
<g>
</g>
<g>
</g>
<g>
</g>
<g>
</g>
<g>
</g>
<g>
</g>
<g>
</g>
</svg>
