<svg id="Gradient" height="512" viewBox="0 0 512 512" width="512" xmlns="http://www.w3.org/2000/svg" xmlns:xlink="http://www.w3.org/1999/xlink"><linearGradient id="linear-gradient" gradientUnits="userSpaceOnUse" x1="256" x2="256" y1="496" y2="15.988"><stop offset="0" stop-color="#27c1e6"/><stop offset=".5" stop-color="#c275e9"/><stop offset="1" stop-color="#f2515d"/></linearGradient><path d="m224 216a72 72 0 1 0 72 72 72.081 72.081 0 0 0 -72-72zm0 128a56 56 0 1 1 56-56 56.063 56.063 0 0 1 -56 56zm267.062-265.9-7.389-3.061 6.12-14.788a32 32 0 0 0 -59.123-24.49l-6.129 14.785-7.39-3.061a8 8 0 0 0 -10.453 4.33l-12.245 29.56a8 8 0 0 0 4.329 10.452l7.4 3.063-15.308 36.959-8.729 21.067a209.939 209.939 0 0 0 -63.37-50.121 205.767 205.767 0 0 0 -94.775-22.795c-114.691 0-208 93.309-208 208s93.309 208 208 208 208-93.309 208-208a207.653 207.653 0 0 0 -10.052-64.038c.172-.365.338-.735.493-1.11l27.55-66.521 15.309-36.951 7.392 3.061a7.991 7.991 0 0 0 10.453-4.329l12.246-29.564a8 8 0 0 0 -4.329-10.448zm-45.611-36.218a16 16 0 1 1 29.557 12.249l-6.118 14.781-29.567-12.247zm-70.251 127.787-11.873 28.654-39.667 22.9a120.764 120.764 0 0 0 -51.2-42.993l24.682-67.808q7.256 3 14.326 6.61a193.824 193.824 0 0 1 63.732 52.637zm-11.342 48.281-5.4 13.038a24 24 0 1 0 44.342 18.374l5.407-13.049c.229-.08.453-.171.678-.258a192.984 192.984 0 0 1 5.426 77.384l-71.011-12.525a120.564 120.564 0 0 0 .7-12.914 119.265 119.265 0 0 0 -12.325-52.93l31.664-18.281q.243.587.519 1.161zm-147.858 189.777v72.094a190.982 190.982 0 0 1 -109.124-39.794l46.325-55.2a119.319 119.319 0 0 0 62.799 22.9zm16 0a119.319 119.319 0 0 0 62.8-22.9l46.325 55.2a190.982 190.982 0 0 1 -109.125 39.794zm-8-15.727a104 104 0 1 1 104-104 104.118 104.118 0 0 1 -104 104zm58.112-287.062-24.681 67.806a120.166 120.166 0 0 0 -66.862 0l-24.662-67.752a192.765 192.765 0 0 1 116.205-.054zm-131.234 5.543 24.661 67.751a120.764 120.764 0 0 0 -51.2 42.993l-62.423-36.038a193.165 193.165 0 0 1 88.962-74.706zm-96.978 88.553 62.426 36.037a119.261 119.261 0 0 0 -12.326 52.929 120.564 120.564 0 0 0 .7 12.914l-71.012 12.525a192.912 192.912 0 0 1 -1.688-25.439 190.8 190.8 0 0 1 21.9-88.966zm-17.436 130.166 71.006-12.53a120.037 120.037 0 0 0 33.48 57.864l-46.327 55.2a192.065 192.065 0 0 1 -58.159-100.534zm316.913 100.539-46.327-55.2a120.037 120.037 0 0 0 33.48-57.864l71.006 12.525a192.065 192.065 0 0 1 -58.159 100.539zm54.277-213a8 8 0 0 1 -6.339 4.859 8 8 0 0 0 -6.346 4.869l-6.95 16.77a8 8 0 1 1 -14.777-6.128l6.94-16.759a8.006 8.006 0 0 0 -1.044-7.93 8.029 8.029 0 0 1 -1.047-7.939l24.5-59.121 29.556 12.24zm30.617-73.922-29.559-12.239 12.247-29.566 29.559 12.244zm33.153-38.217-59.124-24.494 6.123-14.782 59.128 24.492z" fill="url(#linear-gradient)"/></svg>